<mxfile host="65bd71144e">
    <diagram id="03aG2aPTO0s9TJmJhAf-" name="Página-1">
        <mxGraphModel dx="413" dy="216" grid="1" gridSize="10" guides="1" tooltips="1" connect="1" arrows="1" fold="1" page="1" pageScale="1" pageWidth="827" pageHeight="1169" math="0" shadow="0">
            <root>
                <mxCell id="0"/>
                <mxCell id="1" parent="0"/>
                <mxCell id="4" value="" style="edgeStyle=none;html=1;" parent="1" source="2" target="3" edge="1">
                    <mxGeometry relative="1" as="geometry"/>
                </mxCell>
                <mxCell id="2" value="INICIO" style="ellipse;whiteSpace=wrap;html=1;gradientColor=#000066;fillColor=default;gradientDirection=radial;" parent="1" vertex="1">
                    <mxGeometry x="190" width="120" height="80" as="geometry"/>
                </mxCell>
                <mxCell id="6" value="" style="edgeStyle=none;html=1;" parent="1" source="3" target="5" edge="1">
                    <mxGeometry relative="1" as="geometry"/>
                </mxCell>
                <mxCell id="3" value="Par = 0&lt;br&gt;Impar = 0" style="whiteSpace=wrap;html=1;gradientColor=#66FFFF;gradientDirection=radial;" parent="1" vertex="1">
                    <mxGeometry x="190" y="100" width="120" height="60" as="geometry"/>
                </mxCell>
                <mxCell id="8" value="" style="edgeStyle=none;html=1;" parent="1" source="5" target="7" edge="1">
                    <mxGeometry relative="1" as="geometry"/>
                </mxCell>
                <mxCell id="20" value="" style="edgeStyle=none;html=1;" parent="1" source="5" target="19" edge="1">
                    <mxGeometry relative="1" as="geometry">
                        <Array as="points">
                            <mxPoint x="450" y="195"/>
                        </Array>
                    </mxGeometry>
                </mxCell>
                <mxCell id="5" value="i = 1 , 100" style="shape=hexagon;perimeter=hexagonPerimeter2;whiteSpace=wrap;html=1;fixedSize=1;gradientColor=#FFFF66;gradientDirection=radial;" parent="1" vertex="1">
                    <mxGeometry x="180" y="180" width="140" height="30" as="geometry"/>
                </mxCell>
                <mxCell id="10" value="" style="edgeStyle=none;html=1;" parent="1" source="7" target="9" edge="1">
                    <mxGeometry relative="1" as="geometry"/>
                </mxCell>
                <mxCell id="7" value="n" style="shape=parallelogram;perimeter=parallelogramPerimeter;whiteSpace=wrap;html=1;fixedSize=1;gradientColor=#660066;gradientDirection=radial;" parent="1" vertex="1">
                    <mxGeometry x="190" y="230" width="120" height="60" as="geometry"/>
                </mxCell>
                <mxCell id="12" value="" style="edgeStyle=none;html=1;" parent="1" source="9" target="11" edge="1">
                    <mxGeometry relative="1" as="geometry"/>
                </mxCell>
                <mxCell id="9" value="d = [n / 2]&lt;br&gt;r = n - (2 * d)" style="whiteSpace=wrap;html=1;gradientColor=#33FF33;gradientDirection=radial;" parent="1" vertex="1">
                    <mxGeometry x="190" y="310" width="120" height="60" as="geometry"/>
                </mxCell>
                <mxCell id="14" value="" style="edgeStyle=none;html=1;" parent="1" source="11" target="13" edge="1">
                    <mxGeometry relative="1" as="geometry">
                        <Array as="points">
                            <mxPoint x="140" y="430"/>
                        </Array>
                    </mxGeometry>
                </mxCell>
                <mxCell id="17" value="" style="edgeStyle=none;html=1;" parent="1" source="11" target="16" edge="1">
                    <mxGeometry relative="1" as="geometry">
                        <Array as="points">
                            <mxPoint x="370" y="430"/>
                        </Array>
                    </mxGeometry>
                </mxCell>
                <mxCell id="11" value="r = 0" style="rhombus;whiteSpace=wrap;html=1;gradientColor=#CCCCFF;gradientDirection=radial;" parent="1" vertex="1">
                    <mxGeometry x="210" y="390" width="80" height="80" as="geometry"/>
                </mxCell>
                <mxCell id="24" style="edgeStyle=none;html=1;exitX=0.5;exitY=1;exitDx=0;exitDy=0;entryX=0;entryY=0.5;entryDx=0;entryDy=0;" parent="1" source="13" target="23" edge="1">
                    <mxGeometry relative="1" as="geometry">
                        <Array as="points">
                            <mxPoint x="140" y="585"/>
                        </Array>
                    </mxGeometry>
                </mxCell>
                <mxCell id="13" value="Par = Par + 1" style="whiteSpace=wrap;html=1;gradientColor=#006600;gradientDirection=radial;" parent="1" vertex="1">
                    <mxGeometry x="80" y="460" width="120" height="60" as="geometry"/>
                </mxCell>
                <mxCell id="15" value="V" style="text;html=1;align=center;verticalAlign=middle;resizable=0;points=[];autosize=1;strokeColor=none;fillColor=none;" parent="1" vertex="1">
                    <mxGeometry x="160" y="410" width="20" height="20" as="geometry"/>
                </mxCell>
                <mxCell id="25" style="edgeStyle=none;html=1;exitX=0.5;exitY=1;exitDx=0;exitDy=0;entryX=1;entryY=0.5;entryDx=0;entryDy=0;" parent="1" source="16" target="23" edge="1">
                    <mxGeometry relative="1" as="geometry">
                        <Array as="points">
                            <mxPoint x="370" y="585"/>
                        </Array>
                    </mxGeometry>
                </mxCell>
                <mxCell id="16" value="Impar = Impar + 1" style="whiteSpace=wrap;html=1;gradientColor=#FF6666;gradientDirection=radial;" parent="1" vertex="1">
                    <mxGeometry x="310" y="460" width="120" height="60" as="geometry"/>
                </mxCell>
                <mxCell id="18" value="F" style="text;html=1;align=center;verticalAlign=middle;resizable=0;points=[];autosize=1;strokeColor=none;fillColor=none;" parent="1" vertex="1">
                    <mxGeometry x="310" y="410" width="20" height="20" as="geometry"/>
                </mxCell>
                <mxCell id="22" value="" style="edgeStyle=none;html=1;exitX=0.505;exitY=0.847;exitDx=0;exitDy=0;exitPerimeter=0;" parent="1" source="19" target="21" edge="1">
                    <mxGeometry relative="1" as="geometry"/>
                </mxCell>
                <mxCell id="19" value="Cantidad números Impares&lt;br&gt;Cantidad números Pares" style="shape=document;whiteSpace=wrap;html=1;boundedLbl=1;gradientColor=#9933FF;gradientDirection=radial;" parent="1" vertex="1">
                    <mxGeometry x="390" y="220" width="120" height="80" as="geometry"/>
                </mxCell>
                <mxCell id="21" value="FIN" style="ellipse;whiteSpace=wrap;html=1;gradientColor=#66FFB3;gradientDirection=radial;" parent="1" vertex="1">
                    <mxGeometry x="390" y="320" width="120" height="60" as="geometry"/>
                </mxCell>
                <mxCell id="26" style="edgeStyle=none;html=1;exitX=0.5;exitY=1;exitDx=0;exitDy=0;entryX=0;entryY=0.5;entryDx=0;entryDy=0;" parent="1" source="23" target="5" edge="1">
                    <mxGeometry relative="1" as="geometry">
                        <mxPoint x="120" y="360" as="targetPoint"/>
                        <Array as="points">
                            <mxPoint x="250" y="610"/>
                            <mxPoint x="60" y="610"/>
                            <mxPoint x="60" y="195"/>
                        </Array>
                    </mxGeometry>
                </mxCell>
                <mxCell id="23" value="" style="ellipse;whiteSpace=wrap;html=1;aspect=fixed;" parent="1" vertex="1">
                    <mxGeometry x="242.5" y="577" width="15" height="15" as="geometry"/>
                </mxCell>
            </root>
        </mxGraphModel>
    </diagram>
</mxfile>